<?xml version="1.0" encoding="UTF-8" standalone="no"?>
<!-- Created with Inkscape (http://www.inkscape.org/) -->

<svg
   xmlns:dc="http://purl.org/dc/elements/1.1/"
   xmlns:cc="http://creativecommons.org/ns#"
   xmlns:rdf="http://www.w3.org/1999/02/22-rdf-syntax-ns#"
   xmlns:svg="http://www.w3.org/2000/svg"
   xmlns="http://www.w3.org/2000/svg"
   xmlns:sodipodi="http://sodipodi.sourceforge.net/DTD/sodipodi-0.dtd"
   xmlns:inkscape="http://www.inkscape.org/namespaces/inkscape"
   width="80.862144mm"
   height="76.067032mm"
   viewBox="0 0 80.862144 76.067032"
   version="1.1"
   id="svg1036"
   inkscape:version="0.92.4 (5da689c313, 2019-01-14)"
   sodipodi:docname="contrast_invertido_icon.svg">
  <defs
     id="defs1030" />
  <sodipodi:namedview
     id="base"
     pagecolor="#ffffff"
     bordercolor="#666666"
     borderopacity="1.0"
     inkscape:pageopacity="0.0"
     inkscape:pageshadow="2"
     inkscape:zoom="1.979899"
     inkscape:cx="109.9997"
     inkscape:cy="134.20251"
     inkscape:document-units="mm"
     inkscape:current-layer="layer1"
     showgrid="false"
     inkscape:window-width="1920"
     inkscape:window-height="1018"
     inkscape:window-x="-8"
     inkscape:window-y="-8"
     inkscape:window-maximized="1"
     showguides="true"
     inkscape:guide-bbox="true">
    <sodipodi:guide
       position="-20.579754,8.9535293"
       orientation="1,0"
       id="guide833"
       inkscape:locked="false" />
  </sodipodi:namedview>
  <metadata
     id="metadata1033">
    <rdf:RDF>
      <cc:Work
         rdf:about="">
        <dc:format>image/svg+xml</dc:format>
        <dc:type
           rdf:resource="http://purl.org/dc/dcmitype/StillImage" />
        <dc:title></dc:title>
      </cc:Work>
    </rdf:RDF>
  </metadata>
  <g
     inkscape:label="Contraste"
     inkscape:groupmode="layer"
     id="layer1"
     transform="translate(-14.753451,-147.84149)"
     style="display:inline">
    <g
       id="g1193"
       transform="translate(0.74154914,0.72057173)">
      <path
         id="path841"
         d="m 42.335596,198.72093 a 18.182146,18.180401 0 0 0 1.344975,1.21888 18.182146,18.180401 0 0 0 1.462284,1.07914 18.182146,18.180401 0 0 0 1.562253,0.9287 18.182146,18.180401 0 0 0 1.647431,0.76753 18.182146,18.180401 0 0 0 1.715774,0.59924 18.182146,18.180401 0 0 0 1.766778,0.42482 18.182146,18.180401 0 0 0 1.800953,0.24684 18.182146,18.180401 0 0 0 1.546952,0.0673 18.182146,18.180401 0 0 0 1.815232,-0.0908 18.182146,18.180401 0 0 0 1.796872,-0.27182 18.182146,18.180401 0 0 0 1.761168,-0.44982 18.182146,18.180401 0 0 0 1.707104,-0.6232 18.182146,18.180401 0 0 0 1.636719,-0.78998 18.182146,18.180401 0 0 0 1.549501,-0.95011 18.182146,18.180401 0 0 0 1.446473,-1.10005 18.182146,18.180401 0 0 0 1.329676,-1.23827 18.182146,18.180401 0 0 0 1.199613,-1.36575 18.182146,18.180401 0 0 0 1.057314,-1.47795 18.182146,18.180401 0 0 0 0.904301,-1.57638 18.182146,18.180401 0 0 0 0.742618,-1.65901 18.182146,18.180401 0 0 0 0.572776,-1.72428 18.182146,18.180401 0 0 0 0.39834,-1.77324 18.182146,18.180401 0 0 0 0.218808,-1.80383 18.182146,18.180401 0 0 0 0.04539,-1.2862 18.182146,18.180401 0 0 0 -0.09232,-1.81455 18.182146,18.180401 0 0 0 -0.273379,-1.7967 18.182146,18.180401 0 0 0 -0.450878,-1.76049 18.182146,18.180401 0 0 0 -0.624797,-1.70643 18.182146,18.180401 0 0 0 -0.792094,-1.63605 18.182146,18.180401 0 0 0 -0.951225,-1.54833 18.182146,18.180401 0 0 0 -1.101175,-1.44583 18.182146,18.180401 0 0 0 -1.046605,-1.13728 z"
         style="display:inline;opacity:1;fill:#000000;fill-opacity:1;stroke:none;stroke-width:3.12577248;stroke-linecap:round;stroke-linejoin:round;stroke-miterlimit:4;stroke-dasharray:none;stroke-opacity:1;paint-order:normal"
         inkscape:connector-curvature="0" />
      <path
         id="path829-3-4"
         d="m 55.184518,157.81657 a 28.061199,28.058507 0 0 0 -28.060876,28.05819 28.061199,28.058507 0 0 0 8.232047,19.82896 l 39.659697,-39.65537 a 28.061199,28.058507 0 0 0 -19.830868,-8.23178 z m 0,9.87802 a 18.182146,18.180401 0 0 1 1.54491,0.0673 18.182146,18.180401 0 0 1 1.800953,0.24632 18.182146,18.180401 0 0 1 1.766777,0.42482 18.182146,18.180401 0 0 1 1.715775,0.59925 18.182146,18.180401 0 0 1 1.64743,0.76702 18.182146,18.180401 0 0 1 1.562762,0.92818 18.182146,18.180401 0 0 1 1.462285,1.07965 18.182146,18.180401 0 0 1 1.347018,1.2199 L 42.335077,198.7214 a 18.182146,18.180401 0 0 1 -1.046602,-1.1383 18.182146,18.180401 0 0 1 -1.101177,-1.44583 18.182146,18.180401 0 0 1 -0.951224,-1.54832 18.182146,18.180401 0 0 1 -0.792092,-1.63554 18.182146,18.180401 0 0 1 -0.624799,-1.70644 18.182146,18.180401 0 0 1 -0.450876,-1.76049 18.182146,18.180401 0 0 1 -0.273382,-1.7967 18.182146,18.180401 0 0 1 -0.09231,-1.81505 18.182146,18.180401 0 0 1 0.04539,-1.2857 18.182146,18.180401 0 0 1 0.218807,-1.80383 18.182146,18.180401 0 0 1 0.398342,-1.77324 18.182146,18.180401 0 0 1 0.572774,-1.72479 18.182146,18.180401 0 0 1 0.742619,-1.65848 18.182146,18.180401 0 0 1 0.904301,-1.57639 18.182146,18.180401 0 0 1 1.057312,-1.47846 18.182146,18.180401 0 0 1 1.199105,-1.36525 18.182146,18.180401 0 0 1 1.330184,-1.23877 18.182146,18.180401 0 0 1 1.446473,-1.09955 18.182146,18.180401 0 0 1 1.549504,-0.95011 18.182146,18.180401 0 0 1 1.636719,-0.79048 18.182146,18.180401 0 0 1 1.707105,-0.62321 18.182146,18.180401 0 0 1 1.761168,-0.4493 18.182146,18.180401 0 0 1 1.79687,-0.27182 18.182146,18.180401 0 0 1 1.815233,-0.0908 z"
         style="display:inline;opacity:1;fill:#000000;fill-opacity:1;stroke:none;stroke-width:0.74000001;stroke-linecap:round;stroke-linejoin:round;stroke-miterlimit:4;stroke-dasharray:none;stroke-opacity:1;paint-order:normal"
         inkscape:connector-curvature="0" />
      <circle
         r="26.930803"
         cy="185.15443"
         cx="54.442974"
         id="path829"
         style="display:inline;opacity:1;fill:none;fill-opacity:1;stroke:#000000;stroke-width:3;stroke-linecap:round;stroke-linejoin:round;stroke-miterlimit:4;stroke-dasharray:none;stroke-opacity:1;paint-order:normal" />
    </g>
  </g>
  <g
     inkscape:groupmode="layer"
     id="layer2"
     inkscape:label="Espacio"
     style="display:none"
     sodipodi:insensitive="true">
    <rect
       transform="translate(-14.753451,-147.84149)"
       style="display:inline;opacity:1;fill:none;fill-opacity:1;stroke:#0000ff;stroke-width:1.53955996;stroke-miterlimit:4;stroke-dasharray:none;stroke-opacity:1"
       id="rect838-3"
       width="79.322586"
       height="74.527473"
       x="15.523231"
       y="148.61127"
       ry="3.1892688" />
  </g>
</svg>
