<?xml version="1.0" encoding="UTF-8" standalone="no"?>
<!-- Created with Inkscape (http://www.inkscape.org/) -->

<svg
   xmlns:dc="http://purl.org/dc/elements/1.1/"
   xmlns:cc="http://creativecommons.org/ns#"
   xmlns:rdf="http://www.w3.org/1999/02/22-rdf-syntax-ns#"
   xmlns:svg="http://www.w3.org/2000/svg"
   xmlns="http://www.w3.org/2000/svg"
   xmlns:sodipodi="http://sodipodi.sourceforge.net/DTD/sodipodi-0.dtd"
   xmlns:inkscape="http://www.inkscape.org/namespaces/inkscape"
   width="51.33094mm"
   height="35.712399mm"
   viewBox="0 0 51.33094 35.712399"
   version="1.1"
   id="svg1029"
   sodipodi:docname="text_size.svg"
   inkscape:version="0.92.3 (2405546, 2018-03-11)">
  <sodipodi:namedview
     pagecolor="#ffffff"
     bordercolor="#666666"
     borderopacity="1"
     objecttolerance="10"
     gridtolerance="10"
     guidetolerance="10"
     inkscape:pageopacity="0"
     inkscape:pageshadow="2"
     inkscape:window-width="652"
     inkscape:window-height="480"
     id="namedview27"
     showgrid="false"
     inkscape:zoom="0.82087687"
     inkscape:cx="99.314357"
     inkscape:cy="73.695284"
     inkscape:window-x="0"
     inkscape:window-y="0"
     inkscape:window-maximized="0"
     inkscape:current-layer="svg1029" />
  <defs
     id="defs1023">
    <ellipse
       id="path3723"
       cx="1049.0459"
       cy="624.24768"
       rx="192.63768"
       ry="185.08325"
       style="fill:none;stroke:none;stroke-width:0.74232697;stroke-opacity:1" />
  </defs>
  <metadata
     id="metadata1026">
    <rdf:RDF>
      <cc:Work
         rdf:about="">
        <dc:format>image/svg+xml</dc:format>
        <dc:type
           rdf:resource="http://purl.org/dc/dcmitype/StillImage" />
      </cc:Work>
    </rdf:RDF>
  </metadata>
  <g
     id="layer2"
     style="display:none"
     transform="translate(-81.456459,-87.360001)">
    <rect
       style="opacity:1;fill:none;fill-opacity:1;stroke:#0000ff;stroke-width:1.53955996;stroke-miterlimit:4;stroke-dasharray:none;stroke-opacity:1"
       id="rect838-3"
       width="79.322586"
       height="74.527473"
       x="68.07209"
       y="66.31012"
       ry="3.1892688" />
  </g>
  <g
     id="layer1"
     style="display:none"
     transform="translate(-14.154149,-21.819661)">
    <path
       style="fill:none;stroke:#000000;stroke-width:2.15335989;stroke-linecap:round;stroke-linejoin:miter;stroke-miterlimit:4;stroke-dasharray:none;stroke-opacity:1"
       d="M 30.245324,37.672944 H 51.922617"
       id="path2599"
       inkscape:connector-curvature="0" />
    <path
       id="rect2801"
       style="fill:none;stroke:#000000;stroke-width:2.62796998;stroke-linecap:round;stroke-linejoin:round;stroke-dashoffset:7.35805988"
       d="M 36.146444,43.409025 H 24.182615 c -2.360643,0 -4.261089,-1.900446 -4.261089,-4.26109 V 36.19795 c 0,-2.360643 1.900446,-4.261089 4.261089,-4.261089 h 11.963829"
       inkscape:connector-curvature="0" />
    <path
       id="rect2801-0"
       style="fill:none;stroke:#000000;stroke-width:2.62796998;stroke-linecap:round;stroke-linejoin:round;stroke-dashoffset:7.35805988"
       d="m 45.836725,43.245139 h 11.963828 c 2.360644,0 4.26109,-1.900447 4.26109,-4.26109 v -2.949985 c 0,-2.360644 -1.900446,-4.261089 -4.26109,-4.261089 H 45.836724"
       inkscape:connector-curvature="0" />
    <path
       style="fill:none;stroke:#000000;stroke-width:2.62796998;stroke-linecap:round;stroke-linejoin:miter;stroke-miterlimit:4;stroke-dasharray:none;stroke-opacity:1"
       d="m 41.002026,11.970273 v 5.89997"
       id="path3988"
       inkscape:connector-curvature="0" />
    <path
       style="fill:none;stroke:#000000;stroke-width:2.62796998;stroke-linecap:round;stroke-linejoin:miter;stroke-miterlimit:4;stroke-dasharray:none;stroke-opacity:1"
       d="m 40.83814,55.799262 v 5.89997"
       id="path3988-3"
       inkscape:connector-curvature="0" />
    <path
       style="fill:none;stroke:#000000;stroke-width:2.62796998;stroke-linecap:round;stroke-linejoin:miter;stroke-miterlimit:4;stroke-dasharray:none;stroke-opacity:1"
       d="m 24.903493,53.988934 -2.949985,5.109525"
       id="path3988-3-0"
       inkscape:connector-curvature="0" />
    <path
       style="fill:none;stroke:#000000;stroke-width:2.62796998;stroke-linecap:round;stroke-linejoin:miter;stroke-miterlimit:4;stroke-dasharray:none;stroke-opacity:1"
       d="m 56.445007,54.681989 2.949985,5.109524"
       id="path3988-3-0-1"
       inkscape:connector-curvature="0" />
    <path
       style="fill:none;stroke:#000000;stroke-width:2.62796998;stroke-linecap:round;stroke-linejoin:miter;stroke-miterlimit:4;stroke-dasharray:none;stroke-opacity:1"
       d="m 59.886656,16.24743 -2.949985,5.109524"
       id="path3988-3-0-6"
       inkscape:connector-curvature="0" />
    <path
       style="fill:none;stroke:#000000;stroke-width:2.62796998;stroke-linecap:round;stroke-linejoin:miter;stroke-miterlimit:4;stroke-dasharray:none;stroke-opacity:1"
       d="m 77.233277,28.658449 -5.698934,1.527025"
       id="path3988-3-0-6-7"
       inkscape:connector-curvature="0" />
    <path
       style="display:inline;fill:none;stroke:#000000;stroke-width:2.62796998;stroke-linecap:round;stroke-linejoin:miter;stroke-miterlimit:4;stroke-dasharray:none;stroke-opacity:1"
       d="m 5.0610493,28.658449 5.6989327,1.527025"
       id="path3988-3-0-6-7-8"
       inkscape:connector-curvature="0" />
    <path
       style="display:inline;fill:none;stroke:#000000;stroke-width:2.62796998;stroke-linecap:round;stroke-linejoin:miter;stroke-miterlimit:4;stroke-dasharray:none;stroke-opacity:1"
       d="M 10.432206,44.83264 4.7332736,46.359665"
       id="path3988-3-0-6-7-83"
       inkscape:connector-curvature="0" />
    <path
       style="display:inline;fill:none;stroke:#000000;stroke-width:2.62796998;stroke-linecap:round;stroke-linejoin:miter;stroke-miterlimit:4;stroke-dasharray:none;stroke-opacity:1"
       d="m 71.169065,44.83264 5.698933,1.527025"
       id="path3988-3-0-6-7-7"
       inkscape:connector-curvature="0" />
    <path
       style="fill:none;stroke:#000000;stroke-width:2.62796998;stroke-linecap:round;stroke-linejoin:miter;stroke-miterlimit:4;stroke-dasharray:none;stroke-opacity:1"
       d="m 22.772948,16.083541 2.949985,5.109525"
       id="path3988-3-0-4"
       inkscape:connector-curvature="0" />
  </g>
  <g
     id="layer3"
     transform="translate(-14.154149,-21.819661)">
    <g
       aria-label="T"
       id="text17856"
       style="font-size:50.79999924px;font-family:'Varela Round';-inkscape-font-specification:'Varela Round';stroke-width:0.26458299">
      <path
         d="m 28.936948,57.532061 q -0.9652,0 -1.6256,-0.6604 -0.6604,-0.6604 -0.6604,-1.6256 v -29.1084 H 16.287749 q -0.9144,0 -1.524,-0.6096 -0.6096,-0.6096 -0.6096,-1.524 0,-0.9144 0.6096,-1.524 0.6096,-0.6604 1.524,-0.6604 h 25.298399 q 0.9144,0 1.524,0.6604 0.6604,0.6096 0.6604,1.524 0,0.9144 -0.6604,1.524 -0.6096,0.6096 -1.524,0.6096 h -10.3124 v 29.1084 q 0,0.9652 -0.7112,1.6256 -0.6604,0.6604 -1.6256,0.6604 z"
         id="path24391"
         inkscape:connector-curvature="0" />
    </g>
    <g
       aria-label="T"
       id="text17856-9"
       style="font-size:35.27780151px;font-family:'Varela Round';-inkscape-font-specification:'Varela Round';stroke-width:0.26458299">
      <path
         d="m 55.183974,57.45445 q -0.670278,0 -1.12889,-0.458611 -0.458611,-0.458612 -0.458611,-1.12889 v -20.21418 h -7.196672 q -0.635,0 -1.058334,-0.423334 -0.423333,-0.423334 -0.423333,-1.058334 0,-0.635001 0.423333,-1.058334 0.423334,-0.458612 1.058334,-0.458612 h 17.568345 q 0.635001,0 1.058335,0.458612 0.458611,0.423333 0.458611,1.058334 0,0.635 -0.458611,1.058334 -0.423334,0.423334 -1.058335,0.423334 h -7.161393 v 20.21418 q 0,0.670278 -0.493889,1.12889 -0.458612,0.458611 -1.12889,0.458611 z"
         id="path24396"
         inkscape:connector-curvature="0" />
    </g>
  </g>
</svg>
