<?xml version="1.0" encoding="UTF-8" standalone="no"?>
<!-- Created with Inkscape (http://www.inkscape.org/) -->

<svg
   xmlns:dc="http://purl.org/dc/elements/1.1/"
   xmlns:cc="http://creativecommons.org/ns#"
   xmlns:rdf="http://www.w3.org/1999/02/22-rdf-syntax-ns#"
   xmlns:svg="http://www.w3.org/2000/svg"
   xmlns="http://www.w3.org/2000/svg"
   xmlns:sodipodi="http://sodipodi.sourceforge.net/DTD/sodipodi-0.dtd"
   xmlns:inkscape="http://www.inkscape.org/namespaces/inkscape"
   width="62.312523mm"
   height="62.312523mm"
   viewBox="0 0 62.312523 62.312523"
   version="1.1"
   id="svg1029"
   sodipodi:docname="menu.svg"
   inkscape:version="0.92.3 (2405546, 2018-03-11)">
  <sodipodi:namedview
     pagecolor="#ffffff"
     bordercolor="#666666"
     borderopacity="1"
     objecttolerance="10"
     gridtolerance="10"
     guidetolerance="10"
     inkscape:pageopacity="0"
     inkscape:pageshadow="2"
     inkscape:window-width="652"
     inkscape:window-height="480"
     id="namedview30"
     showgrid="false"
     inkscape:zoom="0.82087687"
     inkscape:cx="117.75595"
     inkscape:cy="117.75594"
     inkscape:window-x="0"
     inkscape:window-y="0"
     inkscape:window-maximized="0"
     inkscape:current-layer="svg1029" />
  <defs
     id="defs1023">
    <ellipse
       id="path3723"
       cx="1049.0459"
       cy="624.24768"
       rx="192.63768"
       ry="185.08325"
       style="fill:none;stroke:none;stroke-width:0.74232697;stroke-opacity:1" />
  </defs>
  <metadata
     id="metadata1026">
    <rdf:RDF>
      <cc:Work
         rdf:about="">
        <dc:format>image/svg+xml</dc:format>
        <dc:type
           rdf:resource="http://purl.org/dc/dcmitype/StillImage" />
      </cc:Work>
    </rdf:RDF>
  </metadata>
  <g
     id="layer2"
     style="display:none"
     transform="translate(-76.577122,-72.417595)">
    <rect
       style="opacity:1;fill:none;fill-opacity:1;stroke:#0000ff;stroke-width:1.53955996;stroke-miterlimit:4;stroke-dasharray:none;stroke-opacity:1"
       id="rect838-3"
       width="79.322586"
       height="74.527473"
       x="68.07209"
       y="66.31012"
       ry="3.1892688" />
  </g>
  <g
     id="layer1"
     style="display:none"
     transform="translate(-9.2748119,-6.877255)">
    <path
       style="fill:none;stroke:#000000;stroke-width:3;stroke-linecap:round;stroke-linejoin:miter;stroke-miterlimit:4;stroke-dasharray:none;stroke-opacity:1"
       d="M 32.463392,42.8948 50.590835,31.007797"
       id="path2599"
       inkscape:connector-curvature="0" />
    <path
       id="rect2801"
       style="fill:none;stroke:#000000;stroke-width:3;stroke-linecap:round;stroke-linejoin:round;stroke-miterlimit:4;stroke-dasharray:none;stroke-dashoffset:7.35805988"
       d="m 40.543599,44.455597 -10.004645,6.560508 c -1.974067,1.294487 -4.60543,0.747389 -5.899917,-1.226679 l -1.61766,-2.466899 c -1.294487,-1.974066 -0.747388,-4.60543 1.226679,-5.899916 l 10.004645,-6.560509"
       inkscape:connector-curvature="0" />
    <path
       id="rect2801-0"
       style="fill:none;stroke:#000000;stroke-width:3;stroke-linecap:round;stroke-linejoin:round;stroke-miterlimit:4;stroke-dasharray:none;stroke-dashoffset:7.35805988"
       d="m 48.557142,39.004767 10.004644,-6.560509 c 1.974067,-1.294487 2.521166,-3.925851 1.226679,-5.899918 l -1.61766,-2.466898 c -1.294487,-1.974068 -3.92585,-2.521166 -5.899917,-1.226678 l -10.004646,6.560509"
       inkscape:connector-curvature="0" />
    <path
       style="fill:none;stroke:#000000;stroke-width:3;stroke-linecap:round;stroke-linejoin:miter;stroke-miterlimit:4;stroke-dasharray:none;stroke-opacity:1"
       d="m 27.36422,15.502604 3.23532,4.933797"
       id="path3988"
       inkscape:connector-curvature="0" />
    <path
       style="fill:none;stroke:#000000;stroke-width:3;stroke-linecap:round;stroke-linejoin:miter;stroke-miterlimit:4;stroke-dasharray:none;stroke-opacity:1"
       d="m 51.261323,52.244074 3.235319,4.933797"
       id="path3988-3"
       inkscape:connector-curvature="0" />
    <path
       style="fill:none;stroke:#000000;stroke-width:3;stroke-linecap:round;stroke-linejoin:miter;stroke-miterlimit:4;stroke-dasharray:none;stroke-opacity:1"
       d="m 36.943402,59.468158 0.33497,5.890454"
       id="path3988-3-0"
       inkscape:connector-curvature="0" />
    <path
       style="fill:none;stroke:#000000;stroke-width:3;stroke-linecap:round;stroke-linejoin:miter;stroke-miterlimit:4;stroke-dasharray:none;stroke-opacity:1"
       d="m 63.699756,42.751552 5.268768,2.655134"
       id="path3988-3-0-1"
       inkscape:connector-curvature="0" />
    <path
       style="fill:none;stroke:#000000;stroke-width:3;stroke-linecap:round;stroke-linejoin:miter;stroke-miterlimit:4;stroke-dasharray:none;stroke-opacity:1"
       d="m 45.501754,8.7237255 0.33497,5.8904535"
       id="path3988-3-0-6"
       inkscape:connector-curvature="0" />
    <path
       style="fill:none;stroke:#000000;stroke-width:3;stroke-linecap:round;stroke-linejoin:miter;stroke-miterlimit:4;stroke-dasharray:none;stroke-opacity:1"
       d="m 66.813442,9.5901022 -3.92832,4.4020398"
       id="path3988-3-0-6-7"
       inkscape:connector-curvature="0" />
    <path
       style="display:inline;fill:none;stroke:#000000;stroke-width:3;stroke-linecap:round;stroke-linejoin:miter;stroke-miterlimit:4;stroke-dasharray:none;stroke-opacity:1"
       d="M 6.4600602,49.166607 12.063104,47.31849"
       id="path3988-3-0-6-7-8"
       inkscape:connector-curvature="0" />
    <path
       style="display:inline;fill:none;stroke:#000000;stroke-width:3;stroke-linecap:round;stroke-linejoin:miter;stroke-miterlimit:4;stroke-dasharray:none;stroke-opacity:1"
       d="m 19.820953,59.746792 -3.928319,4.402039"
       id="path3988-3-0-6-7-83"
       inkscape:connector-curvature="0" />
    <path
       style="display:inline;fill:none;stroke:#000000;stroke-width:3;stroke-linecap:round;stroke-linejoin:miter;stroke-miterlimit:4;stroke-dasharray:none;stroke-opacity:1"
       d="m 70.61161,26.441008 5.603044,-1.848117"
       id="path3988-3-0-6-7-7"
       inkscape:connector-curvature="0" />
    <path
       style="fill:none;stroke:#000000;stroke-width:3;stroke-linecap:round;stroke-linejoin:miter;stroke-miterlimit:4;stroke-dasharray:none;stroke-opacity:1"
       d="m 14.375876,28.938421 5.268768,2.655135"
       id="path3988-3-0-4"
       inkscape:connector-curvature="0" />
  </g>
  <g
     id="layer3"
     style="display:none"
     transform="translate(-9.2748119,-6.877255)">
    <path
       id="path905"
       style="fill:none;stroke:#000000;stroke-width:3;stroke-linecap:round;stroke-linejoin:round;stroke-miterlimit:4;stroke-dasharray:none;stroke-opacity:1"
       d="M 9.3451756,35.558754 22.018528,66.685896 24.644941,56.213455 35.056946,67.124537 37.124641,65.185785 39.192336,63.247033 28.973339,52.154979 39.593368,50.207039 Z"
       inkscape:connector-curvature="0" />
    <path
       id="path905-1"
       style="fill:none;stroke:#000000;stroke-width:3;stroke-linecap:round;stroke-linejoin:round;stroke-miterlimit:4;stroke-dasharray:none;stroke-opacity:1"
       d="M 29.122726,6.3386295 48.32462,53.500587 52.304002,37.63338 68.07964,54.165188 71.212486,51.227709 74.345332,48.29023 58.862128,31.484223 74.952952,28.532821 Z"
       inkscape:connector-curvature="0" />
  </g>
  <g
     id="layer4"
     transform="translate(-9.2748119,-6.877255)">
    <g
       id="g5236"
       transform="translate(0.47158908,-0.13386875)">
      <circle
         style="fill:none;stroke:#000000;stroke-width:3.71199012;stroke-linecap:round;stroke-linejoin:round;stroke-miterlimit:4;stroke-dasharray:none;stroke-dashoffset:7.35805988"
         id="path2121"
         cx="39.959484"
         cy="38.167385"
         r="29.300266" />
      <path
         id="path2581"
         style="color:#000000;fill:#000000;stroke-width:1.23732996;stroke-linecap:round;stroke-linejoin:round"
         d="m 27.632961,26.493061 c -0.884587,-0.05488 -1.684546,0.523329 -1.909916,1.380485 -0.260426,0.991626 0.33251,2.006574 1.324215,2.266705 0,0 9.645336,1.321753 10.401902,2.90931 0.756566,1.587557 -0.01382,5.914597 -0.654755,8.777803 -0.926952,4.140969 -4.555785,11.887246 -4.555785,11.887246 -0.45421,0.919537 -0.07651,2.033166 0.843379,2.486662 0.919538,0.454207 2.033164,0.07651 2.48666,-0.843379 l 4.39082,-8.901211 4.391458,8.901211 c 0.453497,0.919887 1.567126,1.297589 2.486663,0.843379 0.919888,-0.453496 1.29759,-1.567125 0.84338,-2.486662 0,0 -3.628836,-7.746277 -4.555789,-11.887246 -0.640926,-2.863206 -1.484538,-7.139928 -0.654754,-8.777803 0.829783,-1.637875 10.401263,-2.90931 10.401263,-2.90931 0.990929,-0.260986 1.582847,-1.275662 1.322297,-2.266705 -0.260975,-0.991246 -1.276094,-1.583252 -2.267343,-1.322297 0,0 -9.72359,2.250248 -11.968455,2.250078 -2.244865,-1.71e-4 -11.965895,-2.250078 -11.965895,-2.250078 -0.117587,-0.03113 -0.237947,-0.05061 -0.359345,-0.05819 z"
         inkscape:connector-curvature="0" />
      <circle
         style="fill:#000000;fill-opacity:1;stroke:none;stroke-width:6.92905998;stroke-linecap:round;stroke-linejoin:round;stroke-miterlimit:4;stroke-dasharray:none;stroke-dashoffset:7.35805988"
         id="path2428"
         cx="40.123173"
         cy="22.453276"
         r="4.583282" />
    </g>
  </g>
</svg>
